<svg width="34" height="48" viewBox="0 0 34 48" fill="none" xmlns="http://www.w3.org/2000/svg">
<path d="M33.1035 19.2354C33.1035 18.8849 32.9725 18.5477 32.7372 18.2924L21.956 6.59776C21.7013 6.32158 21.3462 6.16492 20.9746 6.16492H7.49805C7.11316 6.16492 6.74659 6.33295 6.49081 6.62665L1.10018 12.8179C0.880965 13.0698 0.759766 13.395 0.759766 13.732V37.9927C0.759766 39.0488 1.15032 40.0136 1.79171 40.7443C1.15032 41.4751 0.759766 42.4399 0.759766 43.496C0.759766 45.7719 2.57344 47.6235 4.80273 47.6235H29.0605C31.2898 47.6235 33.1035 45.7719 33.1035 43.496C33.1035 42.4399 32.713 41.4751 32.0716 40.7443C32.7131 40.0136 33.1035 39.0488 33.1035 37.9927V19.2354ZM16.9316 39.3681C14.7023 39.3681 12.8887 37.5165 12.8887 35.2406C12.8887 34.674 13.0472 33.6415 14.4183 31.2287C15.1108 30.0099 15.794 28.9978 15.8228 28.9553C16.0744 28.5835 16.4889 28.3614 16.9316 28.3614C17.3744 28.3614 17.7888 28.5834 18.0405 28.9553C18.0692 28.9978 18.7525 30.0099 19.445 31.2287C20.816 33.6416 20.9746 34.674 20.9746 35.2406C20.9746 37.5165 19.1609 39.3681 16.9316 39.3681ZM26.8663 23.1363C26.3451 23.6374 25.6818 23.8846 25.0186 23.8846C24.3013 23.8846 23.5866 23.5944 23.0563 23.0193L16.8668 16.3054C15.8455 15.1983 15.8982 13.457 16.9812 12.4157C18.067 11.3744 19.7739 11.4269 20.7912 12.5326L26.9808 19.2465C28.002 20.3537 27.9494 22.0949 26.8663 23.1363Z" fill="#1E1B1B"/>
<path d="M15.584 35.2424C15.584 35.9995 16.1885 36.6167 16.9316 36.6167C17.6744 36.6167 18.2787 36 18.2793 35.242C18.2678 34.8198 17.7076 33.6214 16.9319 32.2875C16.1556 33.6228 15.5949 34.8218 15.584 35.2424Z" fill="#1E1B1B"/>
<path d="M15.584 0.661621H7.49805C6.75378 0.661621 6.15039 1.27763 6.15039 2.03746V3.4133H16.9316V2.03746C16.9316 1.27763 16.3282 0.661621 15.584 0.661621Z" fill="#1E1B1B"/>
</svg>
