<svg width="43" height="44" viewBox="0 0 43 44" fill="none" xmlns="http://www.w3.org/2000/svg">
<path d="M33.9082 7.92664C32.5339 7.92664 31.3551 7.05935 30.8672 5.83297H28.002V3.32057H30.8672C31.3551 2.09418 32.5339 1.2269 33.9082 1.2269C35.7175 1.2269 37.1895 2.72965 37.1895 4.57677C37.1895 6.42388 35.7175 7.92664 33.9082 7.92664Z" fill="#1E1B1B"/>
<path d="M39.6504 15.0451C39.111 15.0451 38.6022 14.9108 38.1528 14.6743L35.1061 17.2664C34.8849 17.4545 34.6062 17.5575 34.3184 17.5575H28.002V15.0451H33.8728L36.5442 12.7724C36.4313 12.4341 36.3691 12.0721 36.3691 11.6952C36.3691 9.84811 37.8411 8.34536 39.6504 8.34536C41.4597 8.34536 42.9316 9.84811 42.9316 11.6952C42.9316 13.5423 41.4597 15.0451 39.6504 15.0451Z" fill="#1E1B1B"/>
<path d="M39.6504 25.5134C38.2761 25.5134 37.0972 24.6461 36.6094 23.4198H28.002V20.9074H36.6094C37.0972 19.681 38.2761 18.8137 39.6504 18.8137C41.4597 18.8137 42.9316 20.3164 42.9316 22.1636C42.9316 24.0107 41.4597 25.5134 39.6504 25.5134Z" fill="#1E1B1B"/>
<path d="M35.1061 27.0607L38.1528 29.6528C38.6022 29.4163 39.111 29.282 39.6504 29.282C41.4597 29.282 42.9316 30.7847 42.9316 32.6318C42.9316 34.4789 41.4597 35.9817 39.6504 35.9817C37.8411 35.9817 36.3691 34.4789 36.3691 32.6318C36.3691 32.255 36.4313 31.8929 36.5442 31.5547L33.8728 29.282H28.002V26.7695H34.3184C34.6062 26.7695 34.8849 26.8726 35.1061 27.0607Z" fill="#1E1B1B"/>
<path d="M33.9082 36.4005C35.7175 36.4005 37.1895 37.9032 37.1895 39.7504C37.1895 41.5975 35.7175 43.1002 33.9082 43.1002C32.5339 43.1002 31.3551 42.2329 30.8672 41.0066H28.002V38.4941H30.8672C31.3551 37.2678 32.5339 36.4005 33.9082 36.4005Z" fill="#1E1B1B"/>
<path d="M13.2363 22.1635C13.2363 17.3148 17.1002 13.3701 21.8496 13.3701C23.1699 13.3701 24.4215 13.6754 25.541 14.2197V30.1073C24.4215 30.6517 23.1699 30.9569 21.8496 30.9569C17.1002 30.9569 13.2363 27.0122 13.2363 22.1635Z" fill="#1E1B1B"/>
<path d="M24.3105 43.5189H19.3887C18.7091 43.5189 18.1582 42.9565 18.1582 42.2627V40.6276C15.8493 40.1474 13.6397 39.2128 11.6715 37.8841L10.5386 39.0406C10.0581 39.5312 9.27906 39.5312 8.79852 39.0406L5.31826 35.4875C4.83772 34.997 4.83772 34.2016 5.31826 33.711L6.45103 32.5545C5.14952 30.5451 4.23414 28.2893 3.76377 25.9321H2.16211C1.48256 25.9321 0.931641 25.3697 0.931641 24.6759V19.6511C0.931641 18.9573 1.48256 18.3949 2.16211 18.3949H3.76377C4.23414 16.0377 5.14952 13.7819 6.45103 11.7725L5.31818 10.6159C5.08743 10.3803 4.95782 10.0608 4.95782 9.7277C4.95782 9.39455 5.08743 9.07515 5.31818 8.83957L8.79852 5.28645C9.27906 4.79586 10.0581 4.79586 10.5386 5.28645L11.6715 6.4429C13.6397 5.11418 15.8493 4.17973 18.1582 3.69944V2.06429C18.1582 1.37053 18.7091 0.808086 19.3887 0.808086H24.3105C24.9901 0.808086 25.541 1.37053 25.541 2.06429V11.5044C24.3859 11.0862 23.1435 10.8577 21.8496 10.8577C15.7433 10.8577 10.7754 15.9295 10.7754 22.1635C10.7754 28.3975 15.7433 33.4693 21.8496 33.4693C23.1435 33.4693 24.3859 33.2409 25.541 32.8226V42.2627C25.541 42.9565 24.9901 43.5189 24.3105 43.5189Z" fill="#1E1B1B"/>
</svg>
