<svg width="47" height="48" viewBox="0 0 47 48" fill="none" xmlns="http://www.w3.org/2000/svg">
<path d="M46.7865 21.5963C46.7139 20.9363 45.9597 20.4397 45.3076 20.4397C43.2001 20.4397 41.3298 19.1769 40.5454 17.2223C39.7447 15.2208 40.2613 12.887 41.8315 11.4164C42.326 10.9548 42.3863 10.1818 41.9717 9.64526C40.8927 8.24676 39.6669 6.98331 38.328 5.88843C37.8043 5.4595 37.0346 5.51921 36.58 6.03283C35.2092 7.58284 32.7466 8.15882 30.8436 7.34827C28.864 6.49792 27.6145 4.44931 27.7372 2.25041C27.7776 1.55928 27.2827 0.958737 26.6081 0.878515C24.8899 0.675421 23.1566 0.669531 21.4334 0.864704C20.7674 0.939849 20.2728 1.52618 20.2949 2.20858C20.3695 4.38594 19.1059 6.3984 17.1454 7.21829C15.2653 8.00243 12.8198 7.43072 11.4517 5.89432C10.9996 5.38821 10.2434 5.32606 9.71603 5.74586C8.33782 6.85008 7.08434 8.11434 5.99538 9.50147C5.57105 10.0407 5.63372 10.8222 6.13244 11.2854C7.73366 12.7658 8.24989 15.1197 7.41855 17.1445C6.6248 19.0749 4.66153 20.3184 2.41418 20.3184C1.68489 20.2945 1.16587 20.7947 1.0853 21.4718C0.883184 23.2353 0.880996 25.0331 1.07555 26.8109C1.14816 27.4738 1.9246 27.9661 2.58387 27.9661C4.58713 27.9141 6.50922 29.1794 7.3167 31.1833C8.12019 33.1848 7.60296 35.5176 6.03019 36.9902C5.53823 37.4518 5.47537 38.223 5.89074 38.7589C6.95881 40.1487 8.18584 41.413 9.52864 42.5172C10.0558 42.9506 10.8225 42.8899 11.2795 42.3756C12.6557 40.822 15.1179 40.247 17.0131 41.0592C18.9985 41.9073 20.2474 43.9557 20.1254 46.1552C20.0854 46.8463 20.5816 47.4487 21.2538 47.5271C22.1331 47.6321 23.0169 47.6841 23.9036 47.6841C24.7451 47.6841 25.5868 47.6372 26.4284 47.5415C27.0953 47.4664 27.589 46.8794 27.5665 46.1968C27.4895 44.0205 28.756 42.0078 30.7141 41.1896C32.6067 40.4004 35.0413 40.978 36.4101 42.5121C36.8647 43.0172 37.6163 43.0785 38.1458 42.6604C39.5216 41.559 40.7727 40.2954 41.8665 38.9046C42.2912 38.3664 42.2309 37.5838 41.7294 37.1198C40.1286 35.6404 39.6096 33.2856 40.4409 31.2628C41.2223 29.3584 43.1126 28.0797 45.1457 28.0797L45.4302 28.0874C46.0902 28.142 46.6968 27.6231 46.7766 26.9356C46.9797 25.1706 46.9819 23.3748 46.7865 21.5963ZM23.9312 37.7402C16.6079 37.7402 10.6715 31.6797 10.6715 24.2034C10.6715 16.7271 16.6081 10.6666 23.9312 10.6666C31.2544 10.6666 37.1909 16.7271 37.1909 24.2034C37.1909 26.7411 36.5056 29.1146 35.3154 31.1444L29.5093 25.2167C29.9297 24.2048 30.1517 23.1079 30.1515 21.9759C30.1515 19.7591 29.3058 17.6752 27.7702 16.1079C26.2351 14.5406 24.1938 13.6775 22.0229 13.6775C21.2983 13.6775 20.5772 13.7758 19.8795 13.9697C19.574 14.0548 19.3241 14.3119 19.2428 14.6245C19.1596 14.9442 19.2533 15.2718 19.498 15.5218C19.498 15.5218 22.3644 18.4707 23.3235 19.4496C23.4239 19.5522 23.4237 19.7969 23.4096 19.885L23.4007 19.9494C23.304 21.0258 23.1176 22.3179 22.9638 22.8145C22.9431 22.8354 22.9236 22.8531 22.9025 22.8746C22.8805 22.8971 22.8602 22.9189 22.8389 22.9412C22.3461 23.1027 21.061 23.2952 19.99 23.3931L19.9902 23.3872L19.942 23.3996C19.9335 23.4006 19.9175 23.4018 19.8965 23.4018C19.7807 23.4018 19.6104 23.3687 19.4556 23.2109C18.4574 22.1918 15.7033 19.4003 15.7033 19.4003C15.4563 19.1488 15.2028 19.096 15.0339 19.096C14.6402 19.096 14.2877 19.3864 14.1767 19.803C13.4186 22.6672 14.2223 25.7482 16.2747 27.8437C17.8102 29.4112 19.8517 30.2743 22.0231 30.2743C23.1319 30.2743 24.2064 30.0479 25.1972 29.6187L31.0664 35.6106C29.0058 36.9567 26.5589 37.7402 23.9312 37.7402Z" fill="#1E1B1B"/>
</svg>
