<svg width="38" height="48" viewBox="0 0 38 48" fill="none" xmlns="http://www.w3.org/2000/svg">
<path d="M22.0789 8.97745H15.7844C13.8249 11.2577 11.365 13.0142 8.59961 14.1121V22.5295C8.59961 29.6481 12.6363 36.0319 18.9316 38.9542C25.227 36.0319 29.2637 29.6481 29.2637 22.5295V14.113C26.4974 13.0151 24.0384 11.2586 22.0789 8.97745ZM26.1739 20.8124L17.7879 29.373C17.5247 29.6417 17.1797 29.7765 16.8356 29.7765C16.4906 29.7765 16.1456 29.6416 15.8823 29.373L11.6893 25.0932C11.1637 24.5557 11.1637 23.6843 11.6893 23.1468C12.2158 22.6103 13.0693 22.6103 13.5958 23.1468L16.8356 26.4544L24.2684 18.8671C24.7939 18.3296 25.6475 18.3296 26.1739 18.8671C26.6995 19.4045 26.6995 20.2749 26.1739 20.8124ZM35.9939 7.14299C32.109 7.14299 28.571 4.96367 26.7579 1.45619C26.5251 1.00492 26.0661 0.722412 25.5665 0.722412H12.2966C11.7971 0.722412 11.338 1.00492 11.1044 1.45619C9.2923 4.96367 5.75426 7.14299 1.86133 7.14299C1.11742 7.14299 0.513672 7.75937 0.513672 8.51883V22.5295C0.513672 28.1621 2.23777 33.5408 5.4991 38.0838C8.76043 42.6268 13.2643 45.9241 18.5255 47.6202C18.6576 47.6633 18.7951 47.6844 18.9316 47.6844C19.0682 47.6844 19.2057 47.6633 19.3377 47.6202C24.5991 45.9242 29.1029 42.6269 32.3642 38.0838C35.6255 33.5407 37.3496 28.1621 37.3496 22.5295V8.51883C37.3496 7.75937 36.7378 7.14299 35.9939 7.14299ZM31.959 22.4671C31.959 30.8927 27.049 38.4277 19.45 41.6628C19.2838 41.7335 19.1077 41.7683 18.9316 41.7683C18.7555 41.7683 18.5786 41.7334 18.4132 41.6628C10.8143 38.4277 5.9043 30.8926 5.9043 22.4671V13.082C5.9043 12.4877 6.27805 11.9603 6.83148 11.775C9.69121 10.8147 12.2104 9.04899 14.116 6.66879C14.3721 6.34868 14.7557 6.1634 15.16 6.1634H22.7033C23.1166 6.1634 23.6035 6.48993 23.7472 6.66879C25.6528 9.04899 28.172 10.8147 31.0317 11.775C31.4262 11.9071 31.728 12.2125 31.8699 12.5932C31.8718 12.5968 31.8726 12.6014 31.8744 12.6051C31.9087 12.6996 31.9328 12.7986 31.9464 12.9004C31.9473 12.9105 31.949 12.9215 31.95 12.9316C31.9554 12.9811 31.959 13.0307 31.959 13.082V22.4671Z" fill="#1E1B1B"/>
</svg>
