<svg width="56" height="40" viewBox="0 0 56 40" fill="none" xmlns="http://www.w3.org/2000/svg">
<path d="M54.7662 12.8904C54.5014 12.5606 54.1062 12.3682 53.6917 12.3682H48.4221C47.1217 8.86654 45.4275 5.4357 43.5019 4.14064C36.8403 -0.333337 19.171 -0.333337 12.5095 4.14064C10.5824 5.43711 8.89521 8.8722 7.58786 12.3682H2.31825C1.89957 12.3682 1.50584 12.5606 1.24381 12.8904C0.980402 13.2188 0.875037 13.6533 0.960992 14.0708L1.74152 17.932C1.87461 18.5901 2.44303 19.06 3.09878 19.06H4.65984C3.15285 20.8349 2.42223 23.0697 2.41253 25.306C2.40282 28.0688 3.43012 30.5655 5.30866 32.3319C5.32946 32.3503 5.35025 32.363 5.36966 32.3814V37.7839C5.36966 38.9544 6.3013 39.9069 7.44922 39.9069H12.3098C13.4578 39.9069 14.3894 38.9544 14.3894 37.7839V35.6127H41.6192V37.7839C41.6192 38.9544 42.5508 39.9069 43.6987 39.9069H48.5594C49.7045 39.9069 50.6389 38.9544 50.6389 37.7839V32.4876C52.6325 30.6236 53.585 28.0589 53.5974 25.4985C53.6058 23.1858 52.8419 20.8688 51.2462 19.0572H52.9112C53.5697 19.0572 54.1381 18.5873 54.2684 17.9277L55.0504 14.068C55.1308 13.6533 55.0296 13.2216 54.7662 12.8904ZM14.7928 7.68613C20.1027 4.11799 35.9059 4.11799 41.213 7.68613C42.2444 8.37683 43.5712 11.1693 44.787 14.5889H11.2215C12.4346 11.1708 13.7614 8.37966 14.7928 7.68613ZM8.57357 25.8382C8.57357 23.5312 10.4064 21.6629 12.6648 21.6629C14.9259 21.6629 16.7559 23.5312 16.7559 25.8382C16.7559 28.1452 14.9259 30.0149 12.6648 30.0149C10.4064 30.0149 8.57357 28.1452 8.57357 25.8382ZM43.3979 30.0149C41.1395 30.0149 39.3067 28.1452 39.3067 25.8382C39.3067 23.5312 41.1395 21.6629 43.3979 21.6629C45.6591 21.6629 47.4891 23.5312 47.4891 25.8382C47.4891 28.1452 45.6563 30.0149 43.3979 30.0149Z" fill="#1E1B1B"/>
</svg>
