<svg width="45" height="51" viewBox="0 0 45 51" fill="none" xmlns="http://www.w3.org/2000/svg">
<path d="M1.18446 28.1387C1.39964 27.8647 1.72073 27.7048 2.05758 27.7048H6.33978C7.39653 24.796 8.77324 21.9459 10.3381 20.8701C15.7514 17.1535 30.1099 17.1535 35.5232 20.8701C37.0892 21.9471 38.4603 24.8007 39.5226 27.7048H43.8048C44.1451 27.7048 44.465 27.8647 44.678 28.1387C44.892 28.4115 44.9776 28.7724 44.9078 29.1193L44.2735 32.3268C44.1654 32.8735 43.7035 33.2638 43.1706 33.2638H41.902C43.1266 34.7382 43.7204 36.5948 43.7282 38.4525C43.7361 40.7476 42.9013 42.8216 41.3748 44.289C41.3579 44.3043 41.341 44.3149 41.3252 44.3301V48.818C41.3252 49.7904 40.5681 50.5817 39.6353 50.5817H35.6854C34.7526 50.5817 33.9955 49.7904 33.9955 48.818V47.0144H11.868V48.818C11.868 49.7904 11.1109 50.5817 10.1781 50.5817H6.22825C5.29768 50.5817 4.53835 49.7904 4.53835 48.818V44.4183C2.9183 42.8698 2.14433 40.7394 2.13419 38.6124C2.12743 36.6912 2.74818 34.7665 4.0449 33.2615H2.69186C2.15672 33.2615 1.69481 32.8711 1.58891 32.3232L0.953514 29.1169C0.888168 28.7724 0.970409 28.4138 1.18446 28.1387ZM33.6677 23.8154C29.3528 20.8513 16.5107 20.8513 12.1981 23.8154C11.3599 24.3892 10.2818 26.7089 9.29373 29.5496H36.5698C35.5841 26.7101 34.5059 24.3915 33.6677 23.8154ZM38.7216 38.8946C38.7216 36.9781 37.2323 35.4261 35.397 35.4261C33.5596 35.4261 32.0724 36.9781 32.0724 38.8946C32.0724 40.8111 33.5596 42.3643 35.397 42.3643C37.2323 42.3643 38.7216 40.8111 38.7216 38.8946ZM10.4226 42.3643C12.2578 42.3643 13.7472 40.8111 13.7472 38.8946C13.7472 36.9781 12.2578 35.4261 10.4226 35.4261C8.58509 35.4261 7.09798 36.9781 7.09798 38.8946C7.09798 40.8111 8.58735 42.3643 10.4226 42.3643Z" fill="#1E1B1B"/>
<mask id="mask0_482_1528" style="mask-type:alpha" maskUnits="userSpaceOnUse" x="7" y="0" width="25" height="29">
<path d="M27.4864 15.3416C27.4371 15.9118 27.1297 16.4482 26.6151 16.7489C26.188 16.9986 25.7477 17.1822 25.298 17.3065C25.5514 18.199 26.017 19.4906 26.8457 20.8738C27.6328 22.1885 27.6422 23.7749 26.8704 25.2269C25.7335 27.3668 23.2232 28.8047 20.6227 28.8047C18.8367 28.8047 17.2489 27.9464 16.1522 26.3875C14.5846 24.1589 14.2372 20.8699 15.2236 17.5912C16.1378 14.5519 14.9151 12.9305 14.1061 12.2335C13.4465 12.8969 12.5519 13.3059 11.5632 13.3059C9.53729 13.3059 7.89383 11.5912 7.89383 9.47586C7.89383 7.36048 9.53729 5.64626 11.5632 5.64626C13.5901 5.64626 15.2327 7.36097 15.2327 9.47586C15.2327 9.7737 15.1971 10.062 15.1356 10.3402C16.6634 11.5065 18.427 14.1317 17.1928 18.2361C16.4145 20.8242 16.6533 23.4588 17.8169 25.1125C18.3102 25.8144 19.1981 26.6508 20.6232 26.6508C22.4671 26.6508 24.2941 25.6355 25.0656 24.1825C25.3503 23.6466 25.5859 22.8348 25.0951 22.015C23.9991 20.1839 23.4505 18.4752 23.1903 17.4309C22.5811 17.3351 21.9863 17.13 21.4142 16.8112C20.9042 16.5269 20.5912 16.0125 20.5223 15.4565C18.0979 13.1691 16.9785 9.04779 16.9142 8.80659C16.7834 8.31181 17.0068 7.80385 17.4233 7.57224C17.0885 4.47824 18.1858 2.91884 18.8478 2.28366C18.7974 1.9864 18.9113 1.66842 19.1615 1.498L20.3781 0.668197C20.6959 0.451596 21.0954 0.560913 21.2695 0.913847L21.8492 2.08303C22.0238 2.43606 21.8699 2.81253 21.5052 2.92484L20.1298 3.34798C19.781 3.45526 19.3632 3.28136 19.1658 2.96241C18.6177 3.56506 17.8283 4.90679 18.1002 7.46632C18.474 7.54058 18.7944 7.82477 18.9029 8.23338C19.2334 9.47131 20.1879 12.0283 21.6051 13.5616C22.0562 13.3796 22.5748 13.3886 23.0348 13.6443C23.3344 13.8113 23.6274 13.8954 23.9281 13.902H23.9901C24.3069 13.8949 24.6163 13.8017 24.9331 13.6168C25.3818 13.3541 25.8928 13.3309 26.3435 13.4969C27.7289 11.9573 28.6631 9.45446 28.9881 8.23357C29.0969 7.82603 29.4186 7.54116 29.7911 7.46699C30.0635 4.90747 29.2744 3.56574 28.7255 2.96309C28.5279 3.28194 28.1106 3.45594 27.7619 3.34856L26.3864 2.92543C26.0223 2.81311 25.8673 2.43606 26.0424 2.08361L26.6216 0.914331C26.7962 0.561301 27.1957 0.45208 27.513 0.668682L28.7308 1.49907C28.9809 1.66948 29.0945 1.98737 29.0443 2.28472C29.7054 2.92 30.8036 4.47872 30.4686 7.57321C30.8853 7.80492 31.108 8.31278 30.9778 8.80814C30.9145 9.0443 29.8289 13.0343 27.4864 15.3416ZM11.5632 7.97989C10.7725 7.97989 10.1302 8.64925 10.1302 9.47606C10.1302 10.3023 10.7725 10.9721 11.5632 10.9721C12.355 10.9721 12.9968 10.3023 12.9968 9.47606C12.9968 8.64915 12.3554 7.97989 11.5632 7.97989Z" fill="black"/>
</mask>
<g mask="url(#mask0_482_1528)">
<path d="M52.4465 -2.15417H19.4176L16.0312 6.89914L19.4176 20.5033H52.4465V-2.15417Z" fill="#1E1B1B"/>
</g>
</svg>
