<svg width="45" height="40" viewBox="0 0 45 40" fill="none" xmlns="http://www.w3.org/2000/svg">
<path d="M39.4316 2.40147C39.4316 1.36784 38.6109 0.529907 37.5984 0.529907H30.2649C29.2524 0.529907 28.4316 1.36784 28.4316 2.40147V6.14493H39.4316V2.40147Z" fill="#1E1B1B"/>
<path d="M17.4316 2.40147C17.4316 1.36784 16.6109 0.529907 15.5984 0.529907H8.26486C7.25241 0.529907 6.43164 1.36784 6.43164 2.40147V6.14493H17.4316V2.40147Z" fill="#1E1B1B"/>
<path d="M0.931641 8.01648V36.0916C0.931641 37.1252 1.75241 37.9635 2.76486 37.9635H6.43164V39.835H10.0984V37.9635H35.7649V39.835H39.4316V37.9635H43.0984C44.1109 37.9635 44.9316 37.1252 44.9316 36.0916V8.01648H0.931641ZM15.5984 34.22L19.2649 22.99H13.7649L26.5984 11.7599L22.9316 22.99H28.4316L15.5984 34.22Z" fill="#1E1B1B"/>
</svg>
