<svg width="47" height="48" viewBox="0 0 47 48" fill="black" xmlns="http://www.w3.org/2000/svg">
<path d="M23.9315 8.5304C15.4769 8.5304 8.59814 15.553 8.59814 24.1844C8.59814 32.8159 15.4769 39.8384 23.9315 39.8384C32.3862 39.8384 39.2649 32.8159 39.2649 24.1844C39.2649 15.553 32.3862 8.5304 23.9315 8.5304ZM31.776 14.3777C31.9483 14.1819 32.1916 14.0662 32.4499 14.0558C32.6726 14.03 32.959 14.1408 33.1462 14.3223C35.1339 16.2437 36.4854 18.6897 37.0506 21.3955C37.1404 21.8273 36.9364 22.2669 36.5527 22.4694C35.6149 22.9643 34.5013 23.2041 33.4344 23.2041C32.0437 23.2041 30.7259 22.797 29.9623 22.0174C28.3376 20.3598 29.0151 17.504 31.776 14.3777ZM16.0871 34.1439C15.9148 34.3398 15.6715 34.4563 15.4132 34.4669C15.402 34.4678 15.3889 34.4678 15.3758 34.4678C15.1306 34.4678 14.8948 34.3722 14.717 34.2003C12.7292 32.2788 11.3777 29.8329 10.8125 27.1261C10.7227 26.6943 10.9267 26.2548 11.3104 26.0523C13.4705 24.9143 16.5513 25.1264 17.9008 26.5042C19.5236 28.162 18.846 31.0178 16.0871 34.1439ZM17.9007 22.0175C17.1371 22.7971 15.8193 23.2042 14.4286 23.2042C13.3618 23.2042 12.2499 22.9643 11.3103 22.4695C10.9266 22.267 10.7226 21.8274 10.8124 21.3956C11.3777 18.6898 12.7291 16.2438 14.7169 14.3224C14.904 14.1409 15.1792 14.0282 15.4132 14.0559C15.6715 14.0664 15.9147 14.182 16.087 14.3778C18.8479 17.504 19.5254 20.3598 17.9007 22.0175ZM28.0156 37.231C26.6885 37.6629 25.3147 37.8817 23.9315 37.8817C22.5484 37.8817 21.1744 37.663 19.8474 37.231C19.4262 37.0935 19.1511 36.6807 19.181 36.2307C19.4206 32.7099 21.4627 30.0547 23.9315 30.0547C26.4003 30.0547 28.4424 32.7099 28.682 36.2306C28.7119 36.6807 28.4368 37.0935 28.0156 37.231ZM20.0981 24.1844C20.0981 22.0261 21.8183 20.2709 23.9315 20.2709C26.0447 20.2709 27.7649 22.026 27.7649 24.1844C27.7649 26.3428 26.0447 28.0979 23.9315 28.0979C21.8183 28.0979 20.0981 26.3427 20.0981 24.1844ZM28.682 12.2155C28.4424 15.7354 26.4003 18.3906 23.9315 18.3906C21.4627 18.3906 19.4206 15.7354 19.181 12.2155C19.1511 11.7655 19.4243 11.3528 19.8455 11.2161C22.4997 10.3504 25.3634 10.3504 28.0175 11.2161C28.4387 11.3528 28.7119 11.7655 28.682 12.2155ZM37.0506 26.9705C36.4853 29.6772 35.1339 32.1232 33.1462 34.0446C32.9683 34.2166 32.7325 34.3122 32.4873 34.3122C32.4742 34.3122 32.4611 34.3122 32.4499 34.3112C32.1916 34.3007 31.9483 34.1851 31.776 33.9893C29.0152 30.8631 28.3376 28.0063 29.9623 26.3486C31.3118 24.9699 34.3908 24.7606 36.5527 25.8967C36.9364 26.0991 37.1404 26.5387 37.0506 26.9705Z" fill="white"/>
<path d="M23.9316 0.703369C11.2487 0.703369 0.931641 11.2372 0.931641 24.1844C0.931641 37.1316 11.2487 47.6653 23.9316 47.6653C36.6146 47.6653 46.9316 37.1316 46.9316 24.1844C46.9316 11.2372 36.6146 0.703369 23.9316 0.703369ZM23.9316 41.7951C14.4194 41.7951 6.68164 33.8946 6.68164 24.1844C6.68164 14.4741 14.4194 6.57362 23.9316 6.57362C33.4438 6.57362 41.1816 14.4741 41.1816 24.1844C41.1816 33.8946 33.4438 41.7951 23.9316 41.7951Z" fill="white"/>
</svg>
