<?xml version="1.0" standalone="no"?>
<!DOCTYPE svg PUBLIC "-//W3C//DTD SVG 20010904//EN"
 "http://www.w3.org/TR/2001/REC-SVG-20010904/DTD/svg10.dtd">
<svg version="1.0" xmlns="http://www.w3.org/2000/svg"
 width="2231.000000pt" height="2231.000000pt" viewBox="0 0 2231.000000 2231.000000"
 preserveAspectRatio="xMidYMid meet">
<metadata>
Created by potrace 1.14, written by Peter Selinger 2001-2017
</metadata>
<g transform="translate(0.000000,2231.000000) scale(0.100000,-0.100000)"
fill="#000000" stroke="none">
<path d="M1095 13704 c-66 -6 -134 -14 -150 -18 -17 -3 -39 -8 -50 -10 -249
-47 -416 -184 -490 -401 -48 -141 -48 -141 -54 -885 -6 -688 -6 -706 -27 -750
-45 -97 -144 -150 -287 -152 l-37 0 2 -276 3 -275 54 -4 c92 -5 166 -31 216
-75 31 -27 64 -104 69 -164 3 -27 5 -332 6 -679 2 -565 4 -640 20 -725 21
-111 42 -174 77 -238 137 -249 369 -337 920 -347 77 -1 145 0 150 4 5 3 9 142
9 309 l0 302 -56 1 c-30 1 -66 2 -80 3 -213 21 -288 54 -328 145 -13 31 -16
126 -17 711 -2 584 -4 685 -18 750 -22 98 -65 185 -121 239 l-44 44 42 41 c58
55 92 116 117 212 21 76 22 101 23 754 2 371 6 691 11 710 25 108 124 155 355
168 l115 7 0 308 0 308 -155 -3 c-85 -1 -209 -8 -275 -14z"/>
<path d="M2878 13095 c-2 -1 -34 -5 -73 -9 -149 -14 -322 -68 -421 -131 -60
-39 -173 -146 -212 -202 -49 -71 -95 -176 -123 -283 -17 -64 -18 -81 -23 -315
-2 -115 -8 -211 -13 -212 -4 -2 -93 -4 -198 -5 l-190 -3 0 -281 0 -282 193 1
c106 0 195 -3 199 -6 3 -4 6 -465 7 -1024 l1 -1018 420 -1 c231 0 425 1 431 3
7 3 10 309 10 1023 l-1 1020 30 1 c17 0 137 1 268 1 130 0 237 3 238 7 1 8 1
510 0 538 l-1 23 -227 -1 c-126 0 -246 0 -268 1 l-41 0 2 126 c1 69 7 145 14
168 26 94 107 167 212 190 32 8 128 12 240 12 181 -1 188 0 189 19 5 136 2
628 -5 632 -8 5 -653 13 -658 8z"/>
<path d="M4019 13092 l-96 -3 0 -324 0 -325 431 2 431 3 0 322 1 322 -336 3
c-184 2 -378 2 -431 0z"/>
<path d="M20680 12514 l0 -582 -162 0 c-90 0 -179 0 -199 -1 l-35 -1 0 -274
c1 -151 4 -278 9 -282 4 -4 93 -7 197 -7 l190 1 1 -591 c0 -326 2 -618 4 -649
10 -158 63 -319 145 -437 133 -193 305 -288 610 -338 40 -6 741 -9 751 -2 5 3
8 137 7 328 l-3 322 -205 3 c-233 3 -279 13 -348 72 -97 82 -98 94 -97 744 l0
545 220 0 c163 0 221 3 225 12 4 10 5 482 1 543 -1 13 -32 15 -221 14 -197 -2
-220 0 -221 15 -1 9 -3 266 -4 571 -1 305 -3 560 -4 566 -1 7 -135 10 -431 10
l-430 0 0 -582z"/>
<path d="M6790 11978 c-236 -33 -446 -152 -596 -337 -27 -33 -49 -59 -51 -58
-4 5 -13 88 -19 167 -2 41 -6 84 -9 95 -2 11 -4 37 -4 57 l-1 37 -405 0 -405
0 0 -1307 0 -1307 423 1 c232 1 425 2 428 3 3 0 6 422 6 936 l0 935 26 28 c78
81 227 133 369 127 94 -3 124 -10 188 -38 69 -31 122 -92 150 -173 l24 -69 2
-855 c1 -470 3 -864 3 -875 1 -20 8 -20 431 -20 l430 0 -1 880 c-1 779 -4 936
-23 1061 -7 48 -43 186 -57 219 -7 17 -13 32 -14 35 -8 28 -41 90 -73 137 -45
67 -149 173 -169 173 -7 0 -13 4 -13 9 0 15 -139 81 -223 105 -128 37 -297 51
-417 34z"/>
<path d="M9255 11978 c-375 -37 -621 -155 -823 -393 -7 -8 -22 -30 -33 -50
-12 -19 -26 -35 -32 -35 -6 0 -8 -3 -5 -6 3 -3 -5 -33 -19 -67 -14 -34 -32
-95 -39 -136 -12 -69 -12 -224 0 -280 34 -153 126 -290 262 -387 109 -78 314
-165 504 -214 55 -15 50 -14 180 -40 250 -49 391 -100 472 -169 55 -48 79 -97
77 -155 -6 -119 -93 -202 -238 -225 -54 -9 -214 -7 -256 3 -63 14 -84 21 -126
42 -25 13 -60 35 -77 49 -40 34 -81 121 -88 188 -3 28 -7 53 -9 55 -3 3 -550
5 -722 3 l-63 -1 5 -72 c6 -95 11 -119 42 -198 39 -97 98 -184 183 -268 60
-59 137 -122 149 -122 6 0 11 -3 11 -7 0 -8 64 -48 66 -41 1 1 10 -4 20 -13
49 -42 266 -116 409 -139 142 -23 346 -30 515 -17 496 37 881 277 983 612 24
81 30 258 11 350 -34 164 -150 325 -300 418 -151 94 -389 175 -679 232 -328
64 -444 113 -502 213 -71 120 3 268 160 320 49 16 81 20 152 17 102 -3 117 -6
177 -33 83 -37 135 -114 145 -215 3 -29 7 -54 9 -56 3 -3 189 -5 415 -5 454
-1 429 -5 424 64 -15 197 -70 326 -194 451 -151 152 -397 272 -627 304 -21 3
-48 7 -59 10 -84 18 -360 25 -480 13z"/>
<path d="M15820 11974 c-380 -44 -636 -192 -841 -488 -22 -31 -39 -58 -39 -61
0 -2 -13 -26 -28 -52 -23 -40 -75 -154 -77 -173 -1 -3 -11 -36 -23 -74 -12
-38 -24 -81 -27 -95 -6 -30 -13 -65 -20 -101 -18 -89 -26 -448 -11 -559 18
-146 59 -288 114 -398 33 -67 83 -155 92 -163 3 -3 14 -18 24 -34 49 -78 244
-256 336 -307 14 -8 27 -16 30 -19 10 -10 128 -63 190 -85 179 -64 366 -93
585 -89 263 4 484 44 720 130 81 30 259 116 294 143 24 18 24 19 8 57 -8 22
-43 107 -77 189 -34 83 -69 168 -79 190 -10 22 -21 50 -25 62 -6 18 -11 20
-24 13 -39 -23 -205 -81 -312 -109 -140 -36 -213 -45 -395 -45 -157 -1 -204 6
-290 42 -119 49 -220 151 -272 277 -21 50 -38 128 -31 142 1 5 354 9 783 9
429 1 783 2 786 3 7 1 2 591 -5 631 -53 309 -133 477 -310 656 -137 138 -283
219 -489 273 -174 46 -385 58 -587 35z m328 -633 c140 -42 218 -166 226 -363
l4 -93 -372 0 -371 0 -1 41 c-4 131 91 322 190 384 73 45 228 59 324 31z"/>
<path d="M18797 11985 c-1 -2 -33 -5 -72 -9 -169 -15 -325 -60 -465 -134 -231
-123 -413 -336 -520 -608 -77 -196 -104 -372 -103 -659 2 -321 58 -523 211
-755 68 -102 221 -257 317 -322 175 -116 383 -190 605 -214 120 -14 418 -8
516 10 10 2 42 7 69 10 28 4 86 17 130 28 44 11 88 21 97 23 43 9 212 71 288
106 153 72 201 112 172 145 -5 5 -48 108 -97 229 -49 121 -90 222 -91 224 -2
2 -52 -15 -111 -37 -255 -95 -367 -116 -613 -117 -151 0 -194 5 -269 34 -158
60 -269 180 -316 344 -30 102 -117 92 775 92 l785 0 2 275 c0 151 -3 300 -7
330 -5 30 -11 73 -14 95 -14 109 -89 318 -136 385 -11 15 -20 31 -20 34 0 4
-4 12 -10 19 -5 7 -30 37 -54 68 -51 64 -194 199 -211 199 -6 0 -20 9 -32 19
-29 27 -175 95 -268 125 -109 35 -263 57 -423 60 -72 1 -133 2 -135 1z m274
-656 c125 -54 182 -154 195 -345 5 -72 4 -92 -7 -95 -8 -3 -176 -5 -374 -4
l-360 0 3 59 c7 153 110 337 211 378 103 42 243 45 332 7z"/>
<path d="M3926 11917 c-3 -12 -4 -600 -3 -1307 l2 -1285 430 0 430 0 0 1305 0
1305 -427 2 -428 2 -4 -22z"/>
<path d="M10890 11930 c0 -6 34 -146 76 -312 42 -167 77 -310 79 -318 2 -8 45
-179 95 -380 50 -201 93 -372 95 -380 2 -8 20 -80 40 -160 20 -80 38 -152 40
-160 2 -8 24 -98 50 -200 25 -102 48 -194 51 -205 2 -11 11 -47 19 -80 9 -33
17 -69 20 -80 28 -125 80 -321 86 -325 4 -3 169 -5 365 -5 l358 0 83 255 c46
140 131 401 189 580 58 179 122 376 142 437 20 62 41 112 46 110 6 -2 13 -14
17 -28 11 -36 185 -576 234 -724 23 -71 71 -218 105 -325 34 -107 71 -220 81
-250 l20 -55 357 0 c196 0 362 4 368 7 6 4 15 27 19 50 4 24 9 48 10 53 36
139 55 215 59 235 2 14 7 32 10 40 3 8 8 26 10 40 3 14 17 72 31 130 15 58 28
112 30 120 2 8 39 159 84 335 91 363 190 760 196 790 15 69 128 523 132 535 4
8 8 26 10 40 2 14 8 39 14 56 5 17 11 40 13 51 3 11 9 38 15 59 22 78 56 72
-379 72 -436 1 -401 7 -414 -73 -4 -22 -13 -71 -22 -110 -8 -38 -34 -171 -58
-295 -24 -124 -56 -283 -70 -355 -14 -71 -27 -142 -30 -158 -3 -15 -7 -35 -10
-45 -3 -9 -7 -33 -10 -52 -12 -78 -84 -422 -90 -427 -6 -6 -23 33 -30 70 -2
12 -11 42 -19 67 -8 25 -34 108 -57 185 -23 77 -54 183 -70 235 -16 52 -49
165 -75 250 -25 85 -61 207 -81 270 -19 63 -46 153 -60 200 -14 47 -32 108
-40 135 -8 28 -20 62 -26 77 l-10 28 -269 -2 -269 -1 -20 -67 c-56 -188 -341
-1157 -344 -1170 -6 -21 -76 -262 -82 -279 -7 -20 -21 -2 -27 34 -3 17 -16 86
-30 155 -14 69 -28 139 -31 155 -3 17 -17 84 -30 150 -14 66 -28 136 -31 155
-3 19 -8 42 -10 50 -2 8 -7 31 -10 50 -3 19 -10 53 -15 75 -5 22 -11 54 -14
70 -7 35 -10 52 -31 155 -8 41 -17 86 -20 100 -16 81 -25 128 -30 150 -3 14
-8 39 -10 55 -3 17 -8 37 -10 45 -2 8 -7 35 -10 60 -4 24 -8 47 -11 51 -6 10
-794 9 -794 -1z"/>
</g>
</svg>
